# xmcd
#
# Track frame offsets: 
#        150
#        17643
#        40620
#        58248
#        75213
#        96118
#        117993
#        133523
#        147275
#        164398
#        187623
#        207238
#        228333
#        251685
#        271255
#        289113
#        301163
#
# Disc length: 4248 seconds
#
# Revision: 3
# Processed by: cddbd v1.5.2PL0 Copyright (c) Steve Scherf et al.
# Submitted via: ExactAudioCopy v0.99pb4
#
DISCID=dc109611
DTITLE=Joe Cocker - The Very Best
DYEAR=1900
DGENRE=Blues
TTITLE0=Don't Let Me Be Misunderstood
TTITLE1=Unchain My Heart
TTITLE2=Summer In The City
TTITLE3=You Can Leave Your Hat On
TTITLE4=Now That The Magic Has Gone
TTITLE5=The Simple Things
TTITLE6=Night Calls
TTITLE7=Anybody Seen My Girl
TTITLE8=Human Touch
TTITLE9=Let The Healing Begin
TTITLE10=Shelter Me
TTITLE11=Have A Little Faith In Me
TTITLE12=With A Little Help From My Friends
TTITLE13=Heart Of The Matter
TTITLE14=When The Night Comes
TTITLE15=You Are So Beautiful
TTITLE16=Up Where We Belong
EXTD=
EXTT0=
EXTT1=
EXTT2=
EXTT3=
EXTT4=
EXTT5=
EXTT6=
EXTT7=
EXTT8=
EXTT9=
EXTT10=
EXTT11=
EXTT12=
EXTT13=
EXTT14=
EXTT15=
EXTT16=
PLAYORDER=
